<?xml version="1.0" standalone="no"?><!DOCTYPE svg PUBLIC "-//W3C//DTD SVG 1.1//EN" "http://www.w3.org/Graphics/SVG/1.1/DTD/svg11.dtd"><svg t="1735999798813" class="icon" viewBox="0 0 1024 1024" version="1.1" xmlns="http://www.w3.org/2000/svg" p-id="11314" xmlns:xlink="http://www.w3.org/1999/xlink" width="200" height="200"><path d="M512.52 548.98a32 32 0 0 1 0-64A172.94 172.94 0 1 0 339.6 312a32 32 0 1 1-64 0 236.92 236.92 0 1 1 236.92 236.98zM918 954.46a32 32 0 0 1-32-32 369.6 369.6 0 0 0-79.86-230.84A32 32 0 0 1 856.42 652 433.06 433.06 0 0 1 950 922.46a32 32 0 0 1-32 32z" p-id="11315"></path><path d="M107.04 954.46a32 32 0 0 1-32-32 437.46 437.46 0 0 1 437.48-437.48 32 32 0 0 1 0 64c-206 0-373.48 167.54-373.48 373.48a32 32 0 0 1-32 32z" p-id="11316"></path></svg>