<?xml version="1.0" standalone="no"?><!DOCTYPE svg PUBLIC "-//W3C//DTD SVG 1.1//EN" "http://www.w3.org/Graphics/SVG/1.1/DTD/svg11.dtd"><svg t="1735999858150" class="icon" viewBox="0 0 1024 1024" version="1.1" xmlns="http://www.w3.org/2000/svg" p-id="13161" xmlns:xlink="http://www.w3.org/1999/xlink" width="200" height="200"><path d="M846.05758551 254.53132683H179.0864473c-31.07955847 0-56.43895278 25.35939435-56.43895279 56.43895282v639.70502248c0 31.07955847 25.35939435 56.43895278 56.43895279 56.43895282h666.97113821c31.07955847 0 56.43895278-25.35939435 56.43895284-56.43895282V311.16095178c0-31.27023059-25.35939435-56.62962496-56.43895284-56.62962495z m20.40191876 696.1439753c0 11.24965614-9.15226261 20.40191875-20.40191876 20.40191876H179.0864473c-11.24965614 0-20.40191875-9.15226261-20.40191877-20.40191876V311.16095178c0-11.24965614 9.15226261-20.40191875 20.40191877-20.40191878h666.97113821c11.24965614 0 20.40191875 9.15226261 20.40191876 20.40191878v639.51435035zM208.06861223 179.97852092h608.81613621c9.91495119 0 18.1138531-8.00822981 18.11385307-18.11385308s-8.00822981-18.1138531-18.11385307-18.11385313H208.06861223c-9.91495119 0-18.1138531 8.00822981-18.11385309 18.11385313s8.19890193 18.1138531 18.11385309 18.11385308zM265.84227004 67.48195959h493.26882064c8.96159047 0 16.20713172-7.24554125 16.2071317-16.20713172s-7.24554125-16.20713172-16.2071317-16.20713173H265.84227004c-8.96159047 0-16.20713172 7.24554125-16.20713175 16.20713173s7.24554125 16.20713172 16.20713175 16.20713172z" fill="#2c2c2c" p-id="13162"></path><path d="M670.06720228 433.95380854l-251.87789411 41.37585393c-4.38545919 0.76268854-7.62688551 4.5761313-7.62688551 8.96159046v225.18379482c0 17.35116455-12.5843611 32.03291916-29.74485352 34.51165696l-24.59670578 3.62277064c-20.97393516 3.05075421-36.41837831 21.16460731-36.41837833 42.13854244v4.38545915c0 26.12208286 23.26200082 46.14265735 49.00273945 42.13854251l32.22359129-4.76680345c29.74485349-4.38545919 51.67214937-29.93552565 51.67214936-60.06172343V578.48328905c0-4.5761313 3.24142634-8.38957407 7.6268855-8.9615905l167.79148133-27.45678783c5.52949199-0.9533607 10.67763971 3.43209849 10.67763972 8.96159046v122.41151254c0 17.35116455-12.5843611 32.03291916-29.7448535 34.51165695l-24.59670582 3.6227706c-20.97393516 3.05075421-36.41837831 21.16460731-36.41837831 42.13854247v4.38545916c0 26.12208286 23.26200082 46.14265735 49.00273943 42.1385425l32.22359129-4.76680346c29.74485349-4.38545919 51.67214937-29.93552565 51.67214936-60.06172343V442.91539903c-0.19067215-5.72016414-5.33881986-9.91495119-10.86831185-8.96159049z" fill="#2c2c2c" p-id="13163"></path></svg>